<svg width="72" height="69" viewBox="0 0 72 69" fill="none" xmlns="http://www.w3.org/2000/svg">
<path d="M62.2918 11.2979H16.2411C15.9414 11.2979 15.6973 11.0606 15.6973 10.7695L15.6978 5.29264C15.6978 5.00145 15.9419 4.76416 16.2416 4.76416H62.2923C62.5919 4.76416 62.8361 5.00145 62.8361 5.29264V10.7695C62.847 11.0606 62.6028 11.2979 62.2923 11.2979H62.2918ZM16.7837 10.2415H61.7478V5.8317H16.7837V10.2415Z" fill="white"/>
<path d="M60.8583 65.4746C60.5586 65.4746 60.3145 65.2373 60.3145 64.9461V10.7707C60.3145 10.4795 60.5586 10.2422 60.8583 10.2422C61.1579 10.2422 61.4021 10.4795 61.4021 10.7707V64.9473C61.4021 65.238 61.1579 65.4753 60.8583 65.4753V65.4746Z" fill="white"/>
<path d="M17.6805 65.4746C17.3809 65.4746 17.1367 65.2373 17.1367 64.9461L17.1372 10.7707C17.1372 10.4795 17.3814 10.2422 17.681 10.2422C17.9807 10.2422 18.2248 10.4795 18.2248 10.7707V64.9473C18.2243 65.238 17.9802 65.4753 17.6805 65.4753V65.4746Z" fill="white"/>
<path d="M7.80764 4.8508C7.66352 4.8508 7.5194 4.7969 7.40846 4.6785L4.1798 1.31459L0.95165 4.6891C0.740662 4.90472 0.396952 4.91531 0.175073 4.72134C-0.0468057 4.5163 -0.0576967 4.18228 0.141891 3.96665L3.78058 0.171486C3.99157 -0.0441412 4.36846 -0.0441412 4.57945 0.171486L8.20723 3.96665C8.41822 4.18228 8.39593 4.5163 8.17405 4.72134C8.07401 4.8075 7.94078 4.85082 7.80756 4.85082L7.80764 4.8508Z" fill="white"/>
<path d="M70.4545 65.4748H4.17857C3.87893 65.4748 3.63477 65.2375 3.63477 64.9463L3.63526 0.539068C3.63526 0.237289 3.87943 0 4.18996 0C4.4896 0 4.73327 0.237289 4.73327 0.539068V64.4189H70.4653C70.7649 64.4189 71.0091 64.6562 71.0091 64.9474C71.0091 65.2381 70.7649 65.4754 70.4544 65.4754L70.4545 65.4748Z" fill="white"/>
<path d="M66.5602 68.9998C66.4161 68.9998 66.2719 68.9458 66.161 68.8275C65.95 68.6118 65.9723 68.2778 66.1833 68.0728L69.6556 64.9356L66.1833 61.7984C65.9614 61.5933 65.9505 61.2593 66.161 61.0437C66.372 60.828 66.7157 60.8175 66.9376 61.0114L70.8428 64.537C70.9537 64.6342 71.0201 64.7743 71.0201 64.9249C71.0201 65.0761 70.9537 65.2161 70.8428 65.3129L66.9376 68.8384C66.8261 68.9458 66.6929 68.9997 66.5602 68.9997V68.9998Z" fill="white"/>
<path d="M58.097 5.83173C57.7974 5.83173 57.5532 5.59444 57.5532 5.30324L57.5537 1.06672H20.988V5.30373C20.988 5.59493 20.7438 5.83222 20.4442 5.83222C20.1446 5.83222 19.9004 5.59493 19.9004 5.30373L19.9009 0.538249C19.9009 0.247054 20.1451 0.00976562 20.4447 0.00976562H58.1084C58.408 0.00976562 58.6522 0.247054 58.6522 0.538249V5.30373C58.6408 5.58385 58.3966 5.83174 58.097 5.83174L58.097 5.83173Z" fill="white"/>
<path d="M29.8853 21.2713H22.8075C22.5078 21.2713 22.2637 21.034 22.2637 20.7428V14.6408C22.2637 14.3496 22.5078 14.1123 22.8075 14.1123H29.8853C30.1849 14.1123 30.4291 14.3496 30.4291 14.6408V20.7428C30.4291 21.034 30.1849 21.2713 29.8853 21.2713ZM23.3622 20.2148H29.342V15.1798H23.3622V20.2148Z" fill="white"/>
<path d="M42.8091 21.2713H35.7313C35.4317 21.2713 35.1875 21.034 35.1875 20.7428V14.6408C35.1875 14.3496 35.4317 14.1123 35.7313 14.1123H42.7982C43.0979 14.1123 43.342 14.3496 43.342 14.6408V20.7428C43.3529 21.034 43.1088 21.2713 42.8091 21.2713ZM36.2751 20.2148H42.2549V15.1798H36.2751V20.2148Z" fill="white"/>
<path d="M55.7232 21.2713H48.6454C48.3457 21.2713 48.1016 21.034 48.1016 20.7428V14.6408C48.1016 14.3496 48.3457 14.1123 48.6454 14.1123H55.7232C56.0228 14.1123 56.267 14.3496 56.267 14.6408V20.7428C56.2665 21.034 56.0228 21.2713 55.7232 21.2713ZM49.2001 20.2148H55.1799V15.1798H49.2001V20.2148Z" fill="white"/>
<path d="M29.8853 31.3514H22.8075C22.5078 31.3514 22.2637 31.1141 22.2637 30.8229V24.7209C22.2637 24.4297 22.5078 24.1924 22.8075 24.1924H29.8853C30.1849 24.1924 30.4291 24.4297 30.4291 24.7209V30.8229C30.4291 31.1141 30.1849 31.3514 29.8853 31.3514ZM23.3622 30.2949H29.342V25.2599H23.3622V30.2949Z" fill="white"/>
<path d="M42.8091 31.3514H35.7313C35.4317 31.3514 35.1875 31.1141 35.1875 30.8229V24.7209C35.1875 24.4297 35.4317 24.1924 35.7313 24.1924H42.7982C43.0979 24.1924 43.342 24.4297 43.342 24.7209V30.8229C43.3529 31.1141 43.1088 31.3514 42.8091 31.3514ZM36.2751 30.2949H42.2549V25.2599H36.2751V30.2949Z" fill="white"/>
<path d="M55.7232 31.3514H48.6454C48.3457 31.3514 48.1016 31.1141 48.1016 30.8229V24.7209C48.1016 24.4297 48.3457 24.1924 48.6454 24.1924H55.7232C56.0228 24.1924 56.267 24.4297 56.267 24.7209V30.8229C56.2665 31.1141 56.0228 31.3514 55.7232 31.3514ZM49.2001 30.2949H55.1799V25.2599H49.2001V30.2949Z" fill="white"/>
<path d="M29.8853 41.4432H22.8075C22.5078 41.4432 22.2637 41.2059 22.2637 40.9147V34.8127C22.2637 34.5215 22.5078 34.2842 22.8075 34.2842H29.8853C30.1849 34.2842 30.4291 34.5215 30.4291 34.8127V40.9147C30.4291 41.2059 30.1849 41.4432 29.8853 41.4432ZM23.3622 40.3756H29.342V35.3406H23.3622V40.3756Z" fill="white"/>
<path d="M42.8091 41.4432H35.7313C35.4317 41.4432 35.1875 41.2059 35.1875 40.9147V34.8127C35.1875 34.5215 35.4317 34.2842 35.7313 34.2842H42.7982C43.0979 34.2842 43.342 34.5215 43.342 34.8127V40.9147C43.3529 41.2059 43.1088 41.4432 42.8091 41.4432ZM36.2751 40.3756H42.2549V35.3406H36.2751V40.3756Z" fill="white"/>
<path d="M55.7232 41.4432H48.6454C48.3457 41.4432 48.1016 41.2059 48.1016 40.9147V34.8127C48.1016 34.5215 48.3457 34.2842 48.6454 34.2842H55.7232C56.0228 34.2842 56.267 34.5215 56.267 34.8127V40.9147C56.2665 41.2059 56.0228 41.4432 55.7232 41.4432ZM49.2001 40.3756H55.1799V35.3406H49.2001V40.3756Z" fill="white"/>
<path d="M29.8853 51.5232H22.8075C22.5078 51.5232 22.2637 51.2859 22.2637 50.9947V44.8927C22.2637 44.6015 22.5078 44.3643 22.8075 44.3643H29.8853C30.1849 44.3643 30.4291 44.6015 30.4291 44.8927V50.9947C30.4291 51.2859 30.1849 51.5232 29.8853 51.5232ZM23.3622 50.4557H29.342V45.4207H23.3622V50.4557Z" fill="white"/>
<path d="M45.3495 65.4747C45.0499 65.4747 44.8057 65.2375 44.8057 64.9463V46.8989H33.7341V64.9364C33.7341 65.2276 33.4899 65.4649 33.1903 65.4649C32.8907 65.4649 32.6465 65.2276 32.6465 64.9364L32.647 46.3703C32.647 46.0791 32.8911 45.8418 33.1908 45.8418H45.3495C45.6491 45.8418 45.8933 46.0791 45.8933 46.3703V64.9463C45.8928 65.2375 45.6491 65.4747 45.3495 65.4747H45.3495Z" fill="white"/>
<path d="M55.7232 51.5232H48.6454C48.3457 51.5232 48.1016 51.2859 48.1016 50.9947V44.8927C48.1016 44.6015 48.3457 44.3643 48.6454 44.3643H55.7232C56.0228 44.3643 56.267 44.6015 56.267 44.8927V50.9947C56.2665 51.2859 56.0228 51.5232 55.7232 51.5232ZM49.2001 50.4557H55.1799V45.4207H49.2001V50.4557Z" fill="white"/>
<path d="M29.8853 61.6043H22.8075C22.5078 61.6043 22.2637 61.367 22.2637 61.0758V54.9738C22.2637 54.6826 22.5078 54.4453 22.8075 54.4453H29.8853C30.1849 54.4453 30.4291 54.6826 30.4291 54.9738V61.0758C30.4291 61.367 30.1849 61.6043 29.8853 61.6043ZM23.3622 60.5473H29.342V55.5124H23.3622V60.5473Z" fill="white"/>
<path d="M55.7232 61.6043H48.6454C48.3457 61.6043 48.1016 61.367 48.1016 61.0758V54.9738C48.1016 54.6826 48.3457 54.4453 48.6454 54.4453H55.7232C56.0228 54.4453 56.267 54.6826 56.267 54.9738V61.0758C56.2665 61.367 56.0228 61.6043 55.7232 61.6043ZM49.2001 60.5473H55.1799V55.5124H49.2001V60.5473Z" fill="white"/>
</svg>
