<svg width="71" height="71" viewBox="0 0 71 71" fill="none" xmlns="http://www.w3.org/2000/svg">
<path d="M5.15017 37.5623C5.15017 35.8161 5.15627 34.1448 5.14041 32.4746C5.13919 32.3091 5.01106 32.1362 4.91954 31.9805C4.31794 30.9615 3.69926 29.9535 3.11231 28.9259C2.99272 28.7162 2.86581 28.3717 2.95734 28.2171C3.04886 28.0626 3.4064 28.0259 3.65167 28.0099C4.1166 27.9793 4.58396 28.0013 5.12211 28.0013C5.13675 27.7549 5.15871 27.5403 5.15993 27.3257C5.16238 25.3024 5.18312 23.2791 5.15383 21.2558C5.13309 19.8714 5.73224 18.8818 6.96472 18.341C9.31986 17.3061 11.7092 17.2926 14.0533 18.3754C15.409 19.0007 15.6934 19.6641 15.4676 21.1552C15.431 21.3956 15.4518 21.6445 15.4518 21.8898C15.4505 23.8898 15.4518 25.8897 15.4518 28.0001C16.1351 28.0001 16.7758 27.9952 17.4152 28.0013C18.1425 28.0087 18.2755 28.2306 17.9118 28.8462C17.165 30.1105 16.406 31.3686 15.658 32.6328C15.5677 32.7849 15.464 32.9627 15.4627 33.1295C15.4469 34.5776 15.4542 36.0258 15.4542 37.5648C16.1327 37.5648 16.7745 37.5574 17.4152 37.566C18.14 37.5758 18.273 37.8002 17.9106 38.4158C17.248 39.5415 16.6013 40.6769 15.8935 41.7732C15.5555 42.2968 15.4029 42.8204 15.4444 43.4335C15.4762 43.8946 15.4505 44.3581 15.4505 44.9062C15.6958 44.7836 15.8581 44.7162 16.0082 44.6267C18.3096 43.2422 20.6062 41.8456 22.9162 40.4758C23.2786 40.2613 23.4202 40.0221 23.4055 39.6015C23.375 38.7236 23.3689 37.8431 23.4141 36.9664C23.425 36.7419 23.6203 36.4746 23.8082 36.3238C24.2499 35.9657 24.7673 35.6996 25.1932 35.3269C25.3665 35.1748 25.4605 34.8425 25.4617 34.5924C25.4788 31.2619 25.4739 27.9302 25.4739 24.5997C25.4739 19.4704 25.4739 14.341 25.4727 9.21169C25.4727 8.97135 25.4727 8.73223 25.4727 8.41464C25.0431 8.41464 24.6685 8.47595 24.3293 8.39134C24.123 8.33984 23.8338 8.07374 23.8192 7.88613C23.7606 7.13445 23.7936 6.3754 23.7948 5.62004C23.796 5.15407 24.1108 5.12219 24.4647 5.12219C26.3964 5.12587 28.3281 5.12342 30.261 5.12342C30.9322 5.12342 31.6033 5.13568 32.2745 5.11974C32.6967 5.10993 32.8639 5.3049 32.8602 5.70956C32.8541 6.32268 32.8627 6.93579 32.8602 7.54891C32.8566 8.35333 32.8151 8.39257 31.9902 8.41954C31.8901 8.42322 31.79 8.43671 31.6375 8.4502C31.6375 15.8665 31.6375 23.2717 31.6375 30.7775C31.8401 30.6512 32.0207 30.5495 32.1903 30.4317C33.3569 29.6138 34.5186 28.7861 35.69 27.9756C35.9658 27.7843 36.2782 27.6469 36.615 27.4618C36.615 24.0749 36.615 20.628 36.615 17.1246C36.2257 17.1246 35.8633 17.1172 35.5021 17.1271C35.1397 17.1356 34.9859 16.9615 34.9896 16.6059C34.9957 15.8702 34.9969 15.1344 34.9884 14.3987C34.9835 14.0038 35.1739 13.8579 35.5522 13.8591C38.1965 13.8653 40.8396 13.864 43.484 13.8604C43.8732 13.8591 44.0331 14.0382 44.027 14.422C44.0172 15.0547 43.9928 15.6911 44.0343 16.3214C44.0746 16.9284 43.8732 17.2153 43.2448 17.1307C43.1276 17.1148 43.0044 17.1454 42.836 17.1577C42.836 20.6096 42.836 24.0516 42.836 27.5452C44.4651 27.5452 46.0953 27.5452 47.7647 27.5452C47.7647 25.0633 47.7647 22.6022 47.7647 20.0688C47.412 20.0688 47.0923 20.0578 46.7738 20.0713C46.3675 20.0884 46.1625 19.9143 46.1637 19.4998C46.1661 18.7641 46.1649 18.0283 46.1625 17.2926C46.1612 16.9382 46.3248 16.7727 46.6835 16.7739C49.3474 16.7776 52.0112 16.7776 54.6763 16.7751C55.0668 16.7751 55.2218 16.9689 55.2181 17.3453C55.212 17.9793 55.2194 18.612 55.2169 19.246C55.2145 19.9915 55.1608 20.0467 54.4237 20.07C54.3041 20.0737 54.1858 20.0847 54.0076 20.097C53.9966 20.3288 53.9783 20.547 53.9771 20.7641C53.9747 23.7475 53.9844 26.7309 53.9637 29.7156C53.96 30.1583 54.1101 30.3986 54.4689 30.6476C57.1132 32.4795 59.7368 34.3422 62.3726 36.1852C62.7082 36.4195 62.9132 36.6316 62.7106 37.0865C62.6106 37.3097 62.6728 37.6089 62.6728 37.875C62.6704 47.1527 62.6691 56.4304 62.6667 65.7081C62.6667 66.6511 62.6582 66.7271 61.7076 66.6352C60.2493 66.4941 59.0059 66.8387 57.9198 67.8479C57.4464 68.2881 56.8277 68.5689 56.3444 69.0006C55.4561 69.7952 54.4628 70.0024 53.2828 70C36.2001 69.9669 19.1175 69.9779 2.03359 69.9779C1.00611 69.9779 1.00733 69.9779 1.00733 68.965C1.00733 64.1018 1.01343 59.2373 1.00001 54.374C0.998791 53.8394 1.09885 53.5169 1.64798 53.2422C2.75355 52.6879 3.79567 52 4.84266 51.333C5.00496 51.2299 5.14041 50.9467 5.14163 50.7456C5.16115 47.9252 5.16116 45.1049 5.14529 42.2858C5.14407 42.0393 5.03547 41.7695 4.90978 41.5513C4.30818 40.509 3.67974 39.4814 3.0696 38.4452C2.68765 37.7977 2.81944 37.5758 3.58578 37.5672C4.07267 37.5574 4.55956 37.5623 5.15017 37.5623ZM24.2805 37.1442C24.2805 42.5641 24.2805 47.9498 24.2805 53.3268C25.4446 53.3268 26.4672 53.3268 27.5459 53.3268C27.5459 53.0325 27.5459 52.791 27.5459 52.5494C27.5459 48.7689 27.5557 44.9896 27.5374 41.2091C27.5349 40.6561 27.7021 40.4427 28.2695 40.4575C29.5093 40.4893 30.7504 40.466 31.9902 40.4673C32.8126 40.4685 32.8602 40.5139 32.8602 41.3256C32.8614 45.1061 32.8602 48.8854 32.859 52.6659C32.859 52.8854 32.859 53.1036 32.859 53.3428C33.9951 53.3428 35.0616 53.3428 36.2099 53.3428C36.2099 53.0656 36.2099 52.8265 36.2099 52.5874C36.2099 48.8069 36.2196 45.0276 36.2013 41.2471C36.1989 40.6635 36.3844 40.4403 36.975 40.4587C38.0513 40.4918 39.13 40.4673 40.2075 40.4673C41.1056 40.4673 41.1398 40.4991 41.1386 41.3882C41.1349 45.127 41.13 48.867 41.1252 52.6058C41.1252 52.8437 41.1252 53.0828 41.1252 53.344C42.4186 53.344 43.6279 53.344 44.9031 53.344C44.9031 53.0693 44.9031 52.8302 44.9031 52.5911C44.9031 48.8106 44.9129 45.0313 44.8946 41.2508C44.8922 40.6757 45.0605 40.4391 45.6597 40.4575C46.7567 40.4918 47.855 40.466 48.9532 40.4673C49.7977 40.4685 49.844 40.5126 49.844 41.3722C49.8428 45.1319 49.8392 48.8915 49.8355 52.6512C49.8355 52.8854 49.8355 53.1196 49.8355 53.3378C51.0143 53.3378 52.0845 53.3378 53.1998 53.3378C53.1998 53.0509 53.1998 52.8081 53.1998 52.5641C53.1998 48.8045 53.1998 45.0448 53.201 41.2852C53.201 40.493 53.2279 40.4685 54.0369 40.4673C55.2572 40.466 56.4775 40.466 57.6965 40.4673C58.4897 40.4685 58.5251 40.504 58.5251 41.2962C58.5251 45.0767 58.5251 48.856 58.5239 52.6364C58.5239 52.8707 58.5239 53.1049 58.5239 53.3501C58.7887 53.3636 58.951 53.3771 59.112 53.3795C60.0785 53.3918 60.0736 53.3906 60.0663 54.3802C60.0394 57.9767 60.015 61.572 59.9919 65.1686C59.9906 65.3832 60.0089 65.599 60.0187 65.7989C60.6716 65.7989 61.2487 65.7989 61.8174 65.7989C61.8174 56.2171 61.8174 46.688 61.8174 37.1429C49.2559 37.1442 36.7395 37.1442 24.2805 37.1442ZM8.05077 57.5353C8.05077 61.4212 8.05077 65.2704 8.05077 69.1441C8.61576 69.1441 9.14658 69.1441 9.72987 69.1441C9.72987 68.8461 9.72987 68.6045 9.72987 68.3629C9.72987 65.8295 9.74207 63.2949 9.72133 60.7615C9.71767 60.2342 9.87753 60.0356 10.4181 60.0466C11.841 60.0748 13.265 60.0552 14.6879 60.0589C15.4383 60.0601 15.4603 60.0822 15.4615 60.8669C15.464 63.3807 15.464 65.8933 15.464 68.4071C15.464 68.6462 15.464 68.8841 15.464 69.16C16.7538 69.16 17.9619 69.16 19.2493 69.16C19.2493 68.8816 19.2493 68.6425 19.2493 68.4034C19.2493 65.87 19.2602 63.3354 19.2395 60.802C19.2346 60.2563 19.3847 60.0331 19.9631 60.0466C21.386 60.0809 22.81 60.0809 24.2329 60.0466C24.8296 60.0319 25.0029 60.2502 24.9955 60.8302C24.9675 62.8731 24.9846 64.916 24.9833 66.9601C24.9833 67.6885 24.9833 68.4169 24.9833 69.1477C26.2939 69.1477 27.5008 69.1477 28.7674 69.1477C28.7674 68.8547 28.7674 68.6131 28.7674 68.3727C28.7674 65.859 28.7821 63.3464 28.7577 60.8326C28.7516 60.2587 28.9114 60.027 29.513 60.0454C30.7723 60.0822 32.0341 60.0564 33.2946 60.0589C34.0781 60.0601 34.1025 60.0858 34.1037 60.9025C34.1049 62.905 34.1037 64.9074 34.1037 66.9099C34.1037 67.6579 34.1037 68.4059 34.1037 69.1428C35.5583 69.1428 36.9054 69.1428 38.2856 69.1428C38.2856 68.8424 38.2856 68.5984 38.2856 68.3544C38.2856 65.8406 38.3002 63.328 38.2746 60.8142C38.2685 60.2195 38.4698 60.0294 39.0507 60.0454C40.31 60.0797 41.5718 60.0552 42.8323 60.0589C43.5889 60.0613 43.6231 60.0969 43.6255 60.8559C43.6304 63.4102 43.6328 65.9644 43.6377 68.5187C43.6377 68.7345 43.656 68.9503 43.6658 69.1563C45.0679 69.1563 46.4004 69.1563 47.805 69.1563C47.805 68.8743 47.805 68.6339 47.805 68.3936C47.805 65.8602 47.8172 63.3256 47.7952 60.7921C47.7903 60.2342 47.9697 60.0307 48.5335 60.0454C49.7928 60.0785 51.0546 60.0552 52.3151 60.0576C53.1315 60.0589 53.1473 60.0748 53.1485 60.8719C53.1498 62.9148 53.1498 64.9589 53.1498 67.0018C53.1498 67.7106 53.1498 68.4206 53.1498 69.1612C53.6049 69.1612 53.9783 69.1612 54.3883 69.1612C54.3883 65.274 54.3883 61.4249 54.3883 57.534C38.9287 57.5353 23.5092 57.5353 8.05077 57.5353ZM58.1444 54.309C58.1334 54.2673 58.1236 54.2244 58.1126 54.1827C57.9784 54.1729 57.843 54.1558 57.7087 54.1558C42.8226 54.157 27.9352 54.1582 13.049 54.1643C12.8721 54.1643 12.6561 54.157 12.5231 54.2489C11.4261 55.0068 10.3437 55.7866 9.2564 56.5604C9.26983 56.6033 9.28447 56.6475 9.29789 56.6904C9.73841 56.6904 10.1802 56.6904 10.6207 56.6904C25.1212 56.6904 39.6218 56.6904 54.1211 56.6855C54.3774 56.6855 54.6861 56.6941 54.8813 56.5653C55.9845 55.8369 57.0595 55.0656 58.1444 54.309ZM6.00681 50.504C6.13494 50.4415 6.22768 50.4059 6.31188 50.3556C8.9794 48.7529 11.6518 47.1576 14.3035 45.5292C14.5024 45.4065 14.6586 45.0473 14.6622 44.7959C14.6915 42.8351 14.6793 40.8744 14.6769 38.9136C14.6769 38.7383 14.6476 38.5617 14.6317 38.3888C11.714 38.3888 8.84151 38.3888 6.00681 38.3888C6.00681 42.4403 6.00681 46.4415 6.00681 50.504ZM1.83834 54.1852C1.83834 59.2226 1.83834 64.1901 1.83834 69.1624C3.65533 69.1624 5.41619 69.1624 7.18926 69.1624C7.18926 64.1557 7.18926 59.1858 7.18926 54.1852C5.38569 54.1852 3.62727 54.1852 1.83834 54.1852ZM14.6378 28.8168C11.7275 28.8168 8.85737 28.8168 6.00681 28.8168C6.00681 31.7475 6.00681 34.634 6.00681 37.5292C8.89032 37.5292 11.747 37.5292 14.6378 37.5292C14.6378 34.6095 14.6378 31.7254 14.6378 28.8168ZM8.05199 56.2698C8.26432 56.1447 8.42174 56.0638 8.56695 55.9645C9.5932 55.2655 10.6341 54.5862 11.6359 53.8529C12.1241 53.496 12.6195 53.3648 13.2162 53.3697C16.3682 53.3918 19.5189 53.3808 22.6709 53.3783C22.904 53.3783 23.1371 53.355 23.3591 53.3428C23.3591 50.3311 23.3591 47.3992 23.3591 44.3618C23.0675 44.5384 22.8466 44.6659 22.6306 44.8032C18.2669 47.5745 13.9044 50.3483 9.53951 53.1184C7.89458 54.1631 7.89214 54.1582 8.05199 56.2698ZM60.9083 36.2993C60.9242 36.2539 60.9388 36.2098 60.9547 36.1644C60.1664 35.5966 59.389 35.0117 58.5824 34.471C58.3481 34.314 58.0284 34.2073 57.7478 34.2073C48.0331 34.1938 38.3185 34.1963 28.6039 34.2012C28.4074 34.2012 28.1731 34.2085 28.023 34.3115C27.1274 34.9259 26.2512 35.5697 25.2359 36.2993C37.2422 36.2993 49.0753 36.2993 60.9083 36.2993ZM26.2646 8.44284C26.2646 12.3643 26.2646 16.2135 26.2646 20.0651C27.8058 20.0651 29.297 20.0651 30.7943 20.0651C30.7943 16.1669 30.7943 12.3178 30.7943 8.44284C29.2689 8.44284 27.7912 8.44284 26.2646 8.44284ZM56.9497 33.3575C55.9503 32.6377 55.101 32.0111 54.2322 31.4139C54.065 31.2987 53.8148 31.2594 53.6037 31.2594C46.6701 31.2521 39.7365 31.2521 32.8016 31.2558C32.6235 31.2558 32.4063 31.2447 32.2733 31.3367C31.3605 31.9633 30.466 32.6157 29.43 33.3575C38.6626 33.3575 47.7159 33.3575 56.9497 33.3575ZM14.6464 21.902C11.7006 22.4624 8.84029 22.6034 5.96654 21.7169C5.96654 23.7831 5.96654 25.853 5.96654 27.9596C8.87324 27.9596 11.7445 27.9596 14.6464 27.9596C14.6464 25.9094 14.6464 23.8971 14.6464 21.902ZM48.6079 30.4661C50.1833 30.4661 51.6561 30.4661 53.1595 30.4661C53.1595 26.9921 53.1595 23.5587 53.1595 20.1166C51.611 20.1166 50.104 20.1166 48.6079 20.1166C48.6079 23.5881 48.6079 27.0056 48.6079 30.4661ZM41.9647 27.5636C41.9647 24.0565 41.9647 20.6169 41.9647 17.1626C40.4235 17.1626 38.9311 17.1626 37.407 17.1626C37.407 20.6476 37.407 24.0909 37.407 27.5636C38.9274 27.5636 40.4223 27.5636 41.9647 27.5636ZM3.2319 53.2373C3.238 53.2827 3.24532 53.3268 3.25142 53.3722C4.62789 53.3722 6.00437 53.3783 7.38084 53.3636C7.52971 53.3624 7.69079 53.2692 7.8238 53.1846C12.9002 49.978 17.9753 46.7689 23.0468 43.5525C23.1859 43.4642 23.3628 43.2986 23.3701 43.1613C23.4043 42.5188 23.3848 41.8725 23.3848 41.0926C16.5952 45.1846 9.91291 49.2116 3.2319 53.2373ZM59.1523 54.6278C57.921 55.5009 56.8057 56.3127 55.6648 57.0877C55.3182 57.3231 55.2072 57.5843 55.2084 57.9926C55.223 61.3795 55.2169 64.7664 55.2194 68.1532C55.2194 68.3237 55.2462 68.4941 55.2694 68.7615C56.4409 67.9325 57.5208 67.1465 58.6276 66.3985C58.9888 66.1533 59.1218 65.8823 59.123 65.4469C59.1316 62.0392 59.1645 58.6327 59.1889 55.225C59.1889 55.0681 59.1694 54.9111 59.1523 54.6278ZM26.2732 23.4029C26.2732 27.1099 26.2732 30.742 26.2732 34.4734C27.7839 33.409 29.2177 32.4121 30.6283 31.3845C30.7674 31.284 30.8321 30.9995 30.8333 30.7996C30.8468 28.4931 30.8431 26.1877 30.8394 23.8812C30.8394 23.7254 30.8065 23.5697 30.787 23.4042C29.2641 23.4029 27.7863 23.4029 26.2732 23.4029ZM28.3293 45.8848C28.3293 48.3826 28.3293 50.8412 28.3293 53.3305C29.5911 53.3305 30.8138 53.3305 32.0426 53.3305C32.0426 50.8216 32.0426 48.363 32.0426 45.8848C30.7858 45.8848 29.5777 45.8848 28.3293 45.8848ZM57.7136 45.8848C56.4665 45.8848 55.2608 45.8848 54.0235 45.8848C54.0235 48.3961 54.0235 50.8682 54.0235 53.3415C55.2828 53.3415 56.4909 53.3415 57.7136 53.3415C57.7136 50.8388 57.7136 48.3789 57.7136 45.8848ZM33.6412 30.3667C33.6595 30.4133 33.6778 30.4599 33.6961 30.5065C33.8975 30.5065 34.1 30.5065 34.3014 30.5065C38.3075 30.5065 42.3125 30.5065 46.3187 30.5078C47.8184 30.5078 47.8037 30.5078 47.8123 28.9983C47.8147 28.5421 47.7195 28.3545 47.2119 28.3569C43.7756 28.3778 40.3393 28.3655 36.903 28.3704C36.7248 28.3704 36.5076 28.3618 36.3734 28.4526C35.4533 29.0755 34.5503 29.7254 33.6412 30.3667ZM40.332 53.3403C40.332 50.8265 40.332 48.3569 40.332 45.8455C39.3448 45.8455 38.4137 45.8664 37.4838 45.837C37.0372 45.8222 36.9433 46.005 36.9469 46.4108C36.964 48.0417 36.9543 49.6714 36.9543 51.3023C36.9543 51.9694 36.9543 52.6364 36.9543 53.3415C38.1074 53.3403 39.1947 53.3403 40.332 53.3403ZM48.9947 53.3477C48.9947 50.8277 48.9947 48.3569 48.9947 45.8897C47.8708 45.8897 46.8055 45.8897 45.7073 45.8897C45.7073 48.3924 45.7073 50.8523 45.7073 53.3477C46.8055 53.3477 47.8745 53.3477 48.9947 53.3477ZM10.7281 21.6457C11.7079 21.5145 12.8355 21.3858 13.9532 21.2018C14.2949 21.1454 14.5927 21.002 14.7062 20.5323C14.8904 19.7622 14.3913 19.4508 13.9081 19.208C11.6359 18.0651 9.33328 18.0725 7.05502 19.1982C6.56081 19.4422 6.0605 19.815 6.1508 20.4551C6.24598 21.1319 6.89395 21.2362 7.41745 21.3134C8.45956 21.4655 9.51388 21.5292 10.7281 21.6457ZM14.7306 67.0815C14.7306 65.0533 14.7354 63.0975 14.7171 61.1429C14.7159 61.03 14.517 60.8277 14.4035 60.8228C13.6799 60.7934 12.9538 60.8081 12.2095 60.8081C12.2095 62.9454 12.2095 65.0092 12.2095 67.0815C13.0539 67.0815 13.8422 67.0815 14.7306 67.0815ZM24.2463 67.0656C24.2463 65.0472 24.2499 63.073 24.2353 61.0987C24.2341 61.0031 24.0828 60.8289 23.9986 60.8265C23.2359 60.8056 22.4732 60.8142 21.7191 60.8142C21.7191 62.965 21.7191 65.0165 21.7191 67.0668C22.5721 67.0656 23.3762 67.0656 24.2463 67.0656ZM28.2939 41.2717C28.2939 42.4648 28.2854 43.6015 28.3074 44.737C28.3098 44.8584 28.4941 45.0767 28.5966 45.0779C29.7436 45.1024 30.8907 45.0939 32.0548 45.0939C32.0548 43.772 32.0548 42.5384 32.0548 41.2717C30.8089 41.2717 29.5984 41.2717 28.2939 41.2717ZM54.0101 45.0558C55.2901 45.0558 56.497 45.0558 57.7173 45.0558C57.7173 43.7757 57.7173 42.5396 57.7173 41.2704C56.4689 41.2704 55.2584 41.2704 54.0101 41.2704C54.0101 42.5371 54.0101 43.772 54.0101 45.0558ZM40.3515 41.2459C39.3143 41.2459 38.3027 41.2337 37.2923 41.2631C37.1763 41.2668 36.9738 41.5022 36.9701 41.6346C36.9433 42.6561 36.9433 43.6775 36.9701 44.699C36.9738 44.8339 37.1702 45.0755 37.2837 45.0779C38.2941 45.1073 39.3045 45.0951 40.3503 45.0951C40.3515 43.7855 40.3515 42.5506 40.3515 41.2459ZM50.2772 60.8461C50.2772 62.9491 50.2772 65.0104 50.2772 67.0693C50.9887 67.0693 51.65 67.0693 52.3322 67.0693C52.3322 64.9663 52.3322 62.9062 52.3322 60.8461C51.6171 60.8461 50.9581 60.8461 50.2772 60.8461ZM42.8482 60.8522C42.1355 60.8522 41.4607 60.8522 40.7579 60.8522C40.7579 62.9454 40.7579 65.0067 40.7579 67.0545C41.4839 67.0545 42.16 67.0545 42.8482 67.0545C42.8482 64.9822 42.8482 62.9699 42.8482 60.8522ZM31.2373 60.8437C31.2373 62.9614 31.2373 65.0141 31.2373 67.0717C31.9462 67.0717 32.6088 67.0717 33.3056 67.0717C33.3056 64.9822 33.3056 62.9319 33.3056 60.8437C32.6052 60.8437 31.945 60.8437 31.2373 60.8437ZM46.9654 19.2546C49.4633 19.2546 51.9295 19.2546 54.403 19.2546C54.403 18.6599 54.403 18.1056 54.403 17.5611C51.8965 17.5611 49.4474 17.5611 46.9654 17.5611C46.9654 18.1436 46.9654 18.6844 46.9654 19.2546ZM32.0622 5.92415C29.5301 5.92415 27.0724 5.92415 24.6148 5.92415C24.6148 6.51765 24.6148 7.05597 24.6148 7.58815C27.1249 7.58815 29.5838 7.58815 32.0622 7.58815C32.0622 7.01182 32.0622 6.48822 32.0622 5.92415ZM45.7158 41.2655C45.7158 42.5555 45.7158 43.7904 45.7158 45.0497C46.8385 45.0497 47.9197 45.0497 49.0142 45.0497C49.0142 43.7646 49.0142 42.5286 49.0142 41.2655C47.9038 41.2655 46.8324 41.2655 45.7158 41.2655ZM43.2314 16.3128C43.2314 15.7414 43.2314 15.2104 43.2314 14.6819C40.7078 14.6819 38.2416 14.6819 35.773 14.6819C35.773 15.2546 35.773 15.7745 35.773 16.3128C38.2795 16.3128 40.7469 16.3128 43.2314 16.3128ZM24.1694 67.8896C23.2823 67.8896 22.4708 67.859 21.663 67.8994C21.0662 67.9301 20.882 67.6995 20.8905 67.1183C20.9162 65.2618 20.9027 63.404 20.8991 61.5463C20.8991 61.3121 20.871 61.0779 20.8564 60.8412C20.5464 60.8412 20.3109 60.8412 20.1047 60.8412C20.0632 60.8902 20.0376 60.905 20.0376 60.9209C20.0229 63.572 20.0058 66.2232 20.0083 68.8743C20.0083 68.981 20.1828 69.1772 20.2779 69.1784C21.569 69.1992 22.8613 69.1919 24.1694 69.1919C24.1694 68.7296 24.1694 68.347 24.1694 67.8896ZM14.6427 67.8896C13.8007 67.8896 12.9929 67.8908 12.1838 67.8896C11.4334 67.8884 11.3833 67.8393 11.3821 67.0999C11.3809 65.3243 11.3821 63.5475 11.3821 61.7719C11.3821 61.4727 11.3821 61.1735 11.3821 60.8902C10.4755 60.7382 10.4742 60.7382 10.4742 61.5487C10.473 63.8553 10.4742 66.1618 10.4742 68.4696C10.4742 68.6879 10.4742 68.9062 10.4742 69.1502C11.919 69.1502 13.2833 69.1502 14.6427 69.1502C14.6427 68.7149 14.6427 68.3335 14.6427 67.8896ZM39.119 69.1575C40.3857 69.1575 41.573 69.1575 42.7823 69.1575C42.7823 68.7222 42.7823 68.3286 42.7823 67.8884C42.0501 67.8884 41.3619 67.8614 40.6773 67.897C40.1148 67.9264 39.9256 67.6995 39.9317 67.149C39.9512 65.252 39.9415 63.355 39.9378 61.458C39.9366 60.7492 39.8939 60.7223 39.1202 60.9013C39.119 63.637 39.119 66.3801 39.119 69.1575ZM52.3163 67.8896C51.6354 67.8896 51.0277 67.8908 50.4212 67.8896C49.4694 67.8884 49.4572 67.8761 49.456 66.9479C49.4548 65.1318 49.456 63.3157 49.4535 61.5009C49.4535 61.2851 49.4291 61.0693 49.4157 60.8571C49.118 60.8571 48.8886 60.8571 48.6421 60.8571C48.6421 63.6493 48.6421 66.3936 48.6421 69.1539C49.8867 69.1539 51.0899 69.1539 52.3163 69.1539C52.3163 68.7271 52.3163 68.3482 52.3163 67.8896ZM29.6106 69.1441C30.8638 69.1441 32.067 69.1441 33.2727 69.1441C33.2727 68.71 33.2727 68.3323 33.2727 67.8896C32.5307 67.8896 31.8242 67.8651 31.1201 67.897C30.5795 67.9215 30.4123 67.6946 30.4172 67.1759C30.4343 65.2998 30.4233 63.4224 30.4184 61.5451C30.4172 61.3108 30.3879 61.0766 30.3721 60.8424C30.0841 60.8424 29.8693 60.8424 29.6106 60.8424C29.6106 63.6199 29.6106 66.3642 29.6106 69.1441ZM26.2524 22.5617C27.7826 22.5617 29.275 22.5617 30.8004 22.5617C30.8004 21.9817 30.8004 21.4434 30.8004 20.872C29.2689 20.872 27.7778 20.872 26.2524 20.872C26.2524 21.4373 26.2524 21.9609 26.2524 22.5617ZM15.4884 31.1405C15.525 31.154 15.5616 31.1675 15.597 31.1797C16.0485 30.4133 16.5 29.6457 16.9844 28.8217C16.4182 28.8217 15.9533 28.8217 15.4871 28.8217C15.4884 29.6298 15.4884 30.3851 15.4884 31.1405ZM16.9991 38.3704C16.4292 38.3704 15.9765 38.3704 15.4957 38.3704C15.4957 39.1724 15.4957 39.9412 15.4957 40.7088C15.5311 40.7199 15.5652 40.7321 15.6006 40.7432C16.046 39.9866 16.4926 39.23 16.9991 38.3704ZM3.93112 38.3594C4.33137 39.0252 4.67304 39.593 5.0135 40.1607C5.05011 40.1423 5.0855 40.1251 5.12211 40.1067C5.12211 39.5316 5.12211 38.9578 5.12211 38.3606C4.74382 38.3594 4.4058 38.3594 3.93112 38.3594ZM5.116 30.7677C5.116 29.9976 5.116 29.4103 5.116 28.8217C4.72186 28.8217 4.38018 28.8217 3.95064 28.8217C4.34113 29.474 4.68525 30.0479 5.116 30.7677Z" fill="#EC2232" stroke="#EC2232" stroke-width="0.5"/>
<path d="M64.5814 11.5294C63.7537 11.3666 62.4347 11.0808 61.1043 10.8546C60.0659 10.6781 59.0173 10.5017 57.9662 10.4569C56.3946 10.3898 55.1378 11.0746 54.4231 12.4378C53.9471 13.3437 53.697 14.364 53.3669 15.3407C53.2819 15.593 53.3149 15.8838 53.2222 16.1311C53.1702 16.2715 52.9734 16.4467 52.8401 16.4479C52.7195 16.4492 52.4872 16.2305 52.4923 16.1161C52.5634 14.3801 53.0534 12.7696 54.1527 11.3815C55.035 10.2656 56.2334 9.64175 57.6666 9.69767C58.9894 9.74862 60.3071 9.96857 61.621 10.1562C62.7483 10.3178 63.8603 10.5961 64.9914 10.7204C66.0616 10.8372 66.3637 10.5775 66.709 9.58334C67.5126 7.27195 68.32 4.9618 69.1273 2.65289C69.1756 2.51619 69.1959 2.34594 69.2924 2.25523C69.413 2.1409 69.6669 1.99178 69.7392 2.039C69.8776 2.12847 69.983 2.34346 69.9982 2.51495C70.0134 2.68644 69.9055 2.87036 69.8433 3.04682C69.0436 5.33709 68.2413 7.62736 67.4428 9.91887C67.0023 11.1864 66.4805 11.548 64.5814 11.5294Z" fill="#EC2232" stroke="#EC2232" stroke-width="0.5"/>
<path d="M23.3233 1C23.4645 1.1079 23.6481 1.18024 23.6539 1.26484C23.6657 1.44385 23.6434 1.70378 23.5316 1.80065C22.7715 2.46397 22.0633 3.27565 21.1867 3.69007C20.0067 4.24795 18.6913 4.49317 17.4324 4.86836C15.8146 5.35022 14.1875 5.8002 12.5815 6.32129C12.0085 6.50643 11.4638 6.81909 10.9449 7.14155C9.31072 8.15677 8.71304 9.46134 9.03776 11.4219C9.32719 13.1715 9.69309 14.9077 10.0261 16.6488C10.0449 16.7493 10.1119 16.8633 10.0837 16.9443C10.0178 17.1306 9.90722 17.3011 9.81428 17.4776C9.66133 17.3538 9.40131 17.2532 9.3719 17.1024C8.9707 15.0217 8.51891 12.9472 8.2483 10.8468C8.01888 9.06899 8.80833 7.67614 10.2296 6.6879C11.8544 5.55743 13.7027 5.01059 15.5687 4.5226C16.8406 4.1891 18.1254 3.90709 19.4007 3.58218C20.7891 3.22783 21.9856 2.5314 22.9139 1.37396C23.0198 1.24154 23.1657 1.14223 23.3233 1Z" fill="#EC2232" stroke="#EC2232" stroke-width="0.5"/>
<path d="M59.7014 1.41128C59.5379 1.52674 59.3866 1.71669 59.2084 1.74773C57.4794 2.0457 56.4678 3.17921 55.8248 4.73111C55.5173 5.47355 55.2354 6.22963 54.9999 6.9969C54.7229 7.90073 54.1873 8.5786 53.3746 8.99327C51.7969 9.79902 50.2155 10.601 48.6012 11.3261C46.8185 12.1269 44.9931 12.8296 43.1957 13.5981C42.6954 13.8116 42.2391 14.1307 41.7424 14.3554C41.5826 14.4287 41.3593 14.3567 41.1641 14.3504C41.1897 14.1468 41.1409 13.8451 41.2531 13.757C41.585 13.495 41.9645 13.2778 42.3538 13.1114C44.7124 12.1033 47.0894 11.1386 49.4383 10.1069C50.6292 9.58299 51.7774 8.95851 52.9341 8.35761C53.593 8.01495 54.0128 7.4724 54.2642 6.74114C54.6253 5.69081 55.0109 4.638 55.5002 3.64602C56.2153 2.19964 57.3891 1.28464 58.9815 1.00654C59.1974 0.968052 59.4451 1.10959 59.677 1.1667C59.6867 1.2474 59.6941 1.32934 59.7014 1.41128Z" fill="#EC2232" stroke="#EC2232" stroke-width="0.5"/>
<path d="M41.4305 1.86355C38.4036 1.47453 35.4295 2.41945 32.4655 3.40339C31.8015 3.62445 31.1538 3.88561 30.4798 4.0785C30.3025 4.12943 30.0522 3.99072 29.8359 3.93979C29.9541 3.77941 30.0321 3.52151 30.1956 3.47275C32.6604 2.72721 35.105 1.90798 37.6227 1.32607C38.8613 1.03891 40.2409 1.17978 41.5563 1.16677C42.561 1.15702 43.5671 1.23288 44.5706 1.22204C44.9529 1.21771 45.3289 1.05408 45.7137 1.00531C45.9048 0.98039 46.1136 1.04974 46.3135 1.07683C46.2507 1.24696 46.2469 1.49186 46.1123 1.57314C45.8659 1.7216 45.5439 1.84513 45.2484 1.85271C44.06 1.88197 42.8679 1.86355 41.4305 1.86355Z" fill="#EC2232" stroke="#EC2232" stroke-width="0.5"/>
</svg>
