<svg width="22" height="21" viewBox="0 0 22 21" fill="none" xmlns="http://www.w3.org/2000/svg">
<path d="M21.4173 12.4839V8.67794L19.0556 8.28812C18.8744 7.66053 18.622 7.06289 18.3059 6.50465L19.6961 4.58398L16.9638 1.89255L15.0134 3.26216C14.4471 2.95045 13.8403 2.70183 13.203 2.52367L12.8073 0.196594H8.94383L8.54808 2.52367C7.91096 2.70184 7.30459 2.95027 6.73824 3.26199L4.78749 1.89237L2.05552 4.58362L3.44577 6.50429C3.12967 7.06271 2.8771 7.66013 2.69569 8.28812L0.333984 8.67794V12.4839L2.69569 12.8737C2.87692 13.5015 3.1293 14.0989 3.4454 14.6572L2.05516 16.5778L4.78749 19.2693L6.7377 17.8997C7.30423 18.2114 7.91096 18.46 8.54808 18.6382L8.94383 20.9652H12.8078L13.2035 18.6382C13.8406 18.4602 14.447 18.2116 15.0135 17.9002L16.9639 19.2698L19.6963 16.5784L18.306 14.6579C18.6226 14.0993 18.8749 13.5021 19.0563 12.8741L21.4173 12.4839ZM10.8758 15.63C8.04497 15.63 5.74919 13.3692 5.74919 10.5805C5.74919 7.79181 8.04506 5.53101 10.8758 5.53101C13.7066 5.53101 16.0025 7.79181 16.0025 10.5805C16.0025 13.3692 13.7066 15.63 10.8758 15.63Z" fill="#222222"/>
</svg>
